<?xml version="1.0" encoding="UTF-8" standalone="no"?>
<svg
   xmlns:dc="http://purl.org/dc/elements/1.1/"
   xmlns:cc="http://creativecommons.org/ns#"
   xmlns:rdf="http://www.w3.org/1999/02/22-rdf-syntax-ns#"
   xmlns:svg="http://www.w3.org/2000/svg"
   xmlns="http://www.w3.org/2000/svg"
   xmlns:sodipodi="http://sodipodi.sourceforge.net/DTD/sodipodi-0.dtd"
   xmlns:inkscape="http://www.inkscape.org/namespaces/inkscape"
   sodipodi:docname="pk_product_designer.svg"
   inkscape:version="1.0 (4035a4fb49, 2020-05-01)"
   id="svg8"
   version="1.1"
   viewBox="0 0 210 60"
   height="60mm"
   width="210mm">
  <defs
     id="defs2">
    <rect
       id="rect1029"
       height="17.712305"
       width="105.09301"
       y="115.72039"
       x="257.02524" />
    <rect
       id="rect857"
       height="12.989024"
       width="41.722321"
       y="67.306763"
       x="199.55864" />
  </defs>
  <sodipodi:namedview
     inkscape:window-maximized="1"
     inkscape:window-y="-8"
     inkscape:window-x="-8"
     inkscape:window-height="702"
     inkscape:window-width="1366"
     showgrid="false"
     inkscape:document-rotation="0"
     inkscape:current-layer="layer1"
     inkscape:document-units="mm"
     inkscape:cy="442.1204"
     inkscape:cx="581.26193"
     inkscape:zoom="0.47531871"
     inkscape:pageshadow="2"
     inkscape:pageopacity="0.0"
     borderopacity="1.0"
     bordercolor="#666666"
     pagecolor="#ffffff"
     id="base" />
  <metadata
     id="metadata5">
    <rdf:RDF>
      <cc:Work
         rdf:about="">
        <dc:format>image/svg+xml</dc:format>
        <dc:type
           rdf:resource="http://purl.org/dc/dcmitype/StillImage" />
        <dc:title></dc:title>
      </cc:Work>
    </rdf:RDF>
  </metadata>
  <g
     id="layer1"
     inkscape:groupmode="layer"
     inkscape:label="Layer 1">
    <path
       d="M 32.281108,5.4961352 A 25.065349,25.065349 0 0 0 14.346636,13.11655 h 1.571823 c 2.619912,0 4.920026,0.47933 6.900934,1.437835 1.996884,0.958509 3.530669,2.32447 4.600999,4.0977 1.070329,1.757262 1.605601,3.76195 1.605601,6.014437 0,3.418664 -1.174379,6.118789 -3.522715,8.099699 -2.332361,1.96493 -5.567376,2.94735 -9.70492,2.94735 H 9.4964295 v 5.15421 a 25.065349,25.065349 0 0 0 22.8481075,14.75893 25.065349,25.065349 0 0 0 19.992736,-9.94662 l -7.472194,-11.66783 -3.738151,4.02564 v 9.96839 h -7.1888 V 13.11655 h 7.1888 v 15.815441 l 3.163164,-4.337154 7.565651,-9.767972 a 25.065349,25.065349 0 0 0 -19.511206,-9.3307298 25.065349,25.065349 0 0 0 -0.06343,0 z m 19.574635,9.3307298 a 25.065349,25.065349 0 0 1 3.729142,6.34584 l 6.43742,-8.056155 h -8.84207 z m 3.729142,6.34584 -5.951022,7.447771 6.489602,9.868555 a 25.065349,25.065349 0 0 0 1.28658,-7.92742 25.065349,25.065349 0 0 0 -1.82516,-9.388906 z m 0.53858,17.316326 a 25.065349,25.065349 0 0 1 -3.786192,7.19106 l 1.490012,2.3262 h 8.55457 z M 9.4964295,40.867781 A 25.065349,25.065349 0 0 1 7.2794375,30.561611 25.065349,25.065349 0 0 1 9.4964295,20.255058 V 18.939576 H 10.136717 A 25.065349,25.065349 0 0 1 14.346636,13.11655 H 2.3076265 v 34.889741 h 7.188803 z M 10.136717,18.939576 a 25.065349,25.065349 0 0 0 -0.6402875,1.315482 v 9.635483 h 6.4220295 c 1.901033,0 3.346697,-0.44714 4.337151,-1.341751 1.00643,-0.894607 1.509521,-2.172819 1.509521,-3.834229 0,-1.70933 -0.503091,-3.091012 -1.509521,-4.145363 -1.00643,-1.054357 -2.396152,-1.597671 -4.169384,-1.629622 z"
       style="fill:#d62828;fill-opacity:1;fill-rule:evenodd;stroke-width:0.192162"
       id="path833" />
    <text
       id="text851"
       y="25.662342"
       x="70.640457"
       style="font-style:normal;font-variant:normal;font-weight:bold;font-stretch:normal;font-size:13.0682px;line-height:0;font-family:'Roboto Slab';-inkscape-font-specification:'Roboto Slab Bold';fill:#003049;fill-opacity:1;stroke-width:0.326705"
       xml:space="preserve"><tspan
         style="font-style:normal;font-variant:normal;font-weight:100;font-stretch:normal;font-size:24.3941px;line-height:0.95;font-family:'Roboto Slab';-inkscape-font-specification:'Roboto Slab Thin';letter-spacing:7.9375px;fill:#003049;fill-opacity:1;stroke-width:0.326705"
         y="25.662342"
         x="70.640457"
         id="tspan849"
         sodipodi:role="line">Product</tspan><tspan
         id="tspan853"
         style="font-style:normal;font-variant:normal;font-weight:bold;font-stretch:normal;font-size:24.3941px;line-height:0.95;font-family:'Roboto Slab';-inkscape-font-specification:'Roboto Slab Bold';letter-spacing:4.90058px;fill:#003049;fill-opacity:1;stroke-width:0.326705"
         y="48.836735"
         x="70.640457"
         sodipodi:role="line">Designer</tspan></text>
    <text
       style="font-weight:bold;font-size:10.5833px;line-height:1.25;font-family:'Josefin Sans';-inkscape-font-specification:'Josefin Sans Bold';white-space:pre;shape-inside:url(#rect857);"
       id="text855"
       xml:space="preserve" />
    <g
       transform="matrix(1.2295432,0,0,1.2295432,49.071174,-55.396788)"
       style="font-weight:bold;font-size:66.6781px;line-height:1.25;font-family:'Josefin Sans';-inkscape-font-specification:'Josefin Sans Bold';stroke-width:1.66696"
       id="text863"
       aria-label="PK">
      <g
         style="font-weight:bold;font-size:54.9561px;line-height:1.25;font-family:Roboto;-inkscape-font-specification:'Roboto Bold';stroke-width:2.29025"
         id="text994"
         aria-label="PK" />
    </g>
    <text
       style="font-weight:bold;font-size:10.5833px;line-height:1.25;font-family:Roboto;-inkscape-font-specification:'Roboto Bold';white-space:pre;shape-inside:url(#rect1029);"
       id="text1027"
       xml:space="preserve" />
  </g>
</svg>
